<?xml version="1.0" encoding="UTF-8"?>
<svg width="100" height="100" viewBox="0 0 100 100" xmlns="http://www.w3.org/2000/svg">
  <!-- Outer circle -->
  <circle cx="50" cy="50" r="48" fill="#667eea" stroke="#764ba2" stroke-width="2"/>
  
  <!-- Inner circle -->
  <circle cx="50" cy="50" r="35" fill="#764ba2"/>
  
  <!-- Globe representation -->
  <circle cx="50" cy="50" r="25" fill="#007bff" stroke="white" stroke-width="1"/>
  
  <!-- Continents -->
  <path d="M35 45 Q50 35 65 45 Q50 55 35 45" fill="white" opacity="0.8"/>
  <path d="M40 60 Q50 50 60 60" fill="white" opacity="0.6"/>
  
  <!-- Books at bottom -->
  <rect x="42" y="70" width="6" height="8" fill="#ffc107" rx="1"/>
  <rect x="49" y="70" width="6" height="8" fill="#28a745" rx="1"/>
  <rect x="56" y="70" width="6" height="8" fill="#dc3545" rx="1"/>
  
  <!-- Human figure -->
  <circle cx="50" cy="82" r="3" fill="white"/>
  <line x1="50" y1="85" x2="50" y2="92" stroke="white" stroke-width="2"/>
  <line x1="47" y1="87" x2="53" y2="87" stroke="white" stroke-width="2"/>
  <line x1="50" y1="92" x2="47" y2="96" stroke="white" stroke-width="2"/>
  <line x1="50" y1="92" x2="53" y2="96" stroke="white" stroke-width="2"/>
  
  <!-- MEWS text -->
  <text x="50" y="20" font-family="Arial, sans-serif" font-size="12" font-weight="bold" fill="white" text-anchor="middle">MEWS</text>
</svg>